<?xml version="1.0" encoding="utf-8"?>
<!-- Generator: Adobe Illustrator 27.9.2, SVG Export Plug-In . SVG Version: 6.00 Build 0)  -->
<svg version="1.1" id="Layer_1" xmlns="http://www.w3.org/2000/svg" xmlns:xlink="http://www.w3.org/1999/xlink" x="0px" y="0px"
	 viewBox="0 0 72 72" style="enable-background:new 0 0 72 72;" xml:space="preserve">
<style type="text/css">
	.st0{fill:#8DC63F;}
	.st1{fill:#FFFFFF;}
</style>
<path class="st0" d="M69.67,72H2.33c-1.09,0-1.97-0.88-1.97-1.97V59.87c0-1.09,0.88-1.97,1.97-1.97h67.35
	c1.09,0,1.97,0.88,1.97,1.97v10.16C71.64,71.12,70.76,72,69.67,72z"/>
<path class="st0" d="M65.5,56.68h-59c-1.04,0-1.88-0.84-1.88-1.88v-7.98c0-1.04,0.84-1.88,1.88-1.88h59c1.04,0,1.88,0.84,1.88,1.88
	v7.98C67.38,55.84,66.54,56.68,65.5,56.68z"/>
<path class="st0" d="M59.87,43.72H12.13c-1.06,0-1.93-0.86-1.93-1.93v-7.88c0-1.06,0.86-1.93,1.93-1.93h47.74
	c1.06,0,1.93,0.86,1.93,1.93v7.88C61.79,42.86,60.93,43.72,59.87,43.72z"/>
<path class="st0" d="M55.65,30.76H16.35c-1.09,0-1.98-0.89-1.98-1.98V21c0-1.09,0.89-1.98,1.98-1.98h39.29
	c1.09,0,1.98,0.89,1.98,1.98v7.78C57.62,29.88,56.74,30.76,55.65,30.76z"/>
<path class="st0" d="M48.32,17.8H23.68c-1,0-1.82-0.81-1.82-1.82V4.63c0-1,0.81-1.82,1.82-1.82h24.65c1,0,1.82,0.81,1.82,1.82v11.36
	C50.14,16.99,49.33,17.8,48.32,17.8z"/>
<path d="M38.58,20.25h-5.25c-0.84,0-1.53-0.68-1.53-1.53v-6.15c0-0.84,0.68-1.53,1.53-1.53h5.25c0.84,0,1.53,0.68,1.53,1.53v6.15
	C40.11,19.56,39.42,20.25,38.58,20.25z"/>
<polygon points="62.64,72 9.42,72 31.66,17.8 39.81,17.8 "/>
<path class="st1" d="M26.41,69.64h-1.76c-0.87,0-1.58-0.71-1.58-1.58v-9.8c0-0.87,0.71-1.58,1.58-1.58h1.76
	c0.87,0,1.58,0.71,1.58,1.58v9.8C27.99,68.93,27.28,69.64,26.41,69.64z"/>
<path class="st1" d="M47.44,51.15H24.47c-0.87,0-1.58-0.71-1.58-1.58v-6.74c0-0.87,0.71-1.58,1.58-1.58h22.97
	c0.87,0,1.58,0.71,1.58,1.58v6.74C49.02,50.44,48.31,51.15,47.44,51.15z"/>
<path class="st1" d="M48.86,59.38H23.14c-0.93,0-1.69-0.76-1.69-1.69v-6.01c0-0.93,0.76-1.69,1.69-1.69h25.73
	c0.93,0,1.69,0.76,1.69,1.69v6.01C50.55,58.62,49.79,59.38,48.86,59.38z"/>
<ellipse cx="46.6" cy="54.68" rx="2.23" ry="1.99"/>
<ellipse cx="25.4" cy="54.68" rx="2.23" ry="1.99"/>
<path d="M46.06,49.64H25.84c-0.87,0-1.58-0.71-1.58-1.58v-3.3c0-0.87,0.71-1.58,1.58-1.58h20.22c0.87,0,1.58,0.71,1.58,1.58v3.3
	C47.65,48.92,46.93,49.64,46.06,49.64z"/>
<path class="st1" d="M47.48,69.64h-1.76c-0.87,0-1.58-0.71-1.58-1.58v-9.8c0-0.87,0.71-1.58,1.58-1.58h1.76
	c0.87,0,1.58,0.71,1.58,1.58v9.8C49.07,68.93,48.35,69.64,47.48,69.64z"/>
<path class="st1" d="M50.04,62.55H21.96c-0.86,0-1.57-0.7-1.57-1.57v-1.41c0-0.86,0.7-1.57,1.57-1.57h28.07
	c0.86,0,1.57,0.7,1.57,1.57v1.41C51.6,61.85,50.9,62.55,50.04,62.55z"/>
<rect x="36.76" y="52.43" width="0.78" height="4.51"/>
<rect x="39.07" y="52.43" width="0.78" height="4.51"/>
<rect x="41.37" y="52.43" width="0.78" height="4.51"/>
<rect x="32.16" y="52.43" width="0.78" height="4.51"/>
<rect x="29.85" y="52.43" width="0.78" height="4.51"/>
<rect x="34.46" y="52.43" width="0.78" height="4.51"/>
</svg>
