<?xml version="1.0" encoding="UTF-8"?>
<svg id="Layer_1" data-name="Layer 1" xmlns="http://www.w3.org/2000/svg" viewBox="0 0 68.86 59.62">
  <defs>
    <style>
      .cls-1 {
        fill: #231f20;
      }

      .cls-1, .cls-2 {
        stroke: #fff;
        stroke-width: .89px;
      }

      .cls-1, .cls-2, .cls-3 {
        stroke-miterlimit: 10;
      }

      .cls-2 {
        fill: #58595b;
      }

      .cls-3 {
        fill: none;
        stroke: #fbb040;
        stroke-width: .79px;
      }
    </style>
  </defs>
  <path class="cls-3" d="m37.74,1.02l3.32,10.37c.19.59.9.82,1.39.45l9.72-7.15c.73-.54,1.7.21,1.38,1.06l-3.77,9.62c-.25.64.28,1.31.96,1.22l12.25-1.59c.94-.12,1.41,1.11.62,1.64l-9.11,6.15c-.61.41-.5,1.34.2,1.6l10.84,3.95c.9.33.73,1.66-.22,1.75l-11.98,1.13c-.72.07-1.07.9-.62,1.46l6.61,8.22c.58.73-.18,1.75-1.04,1.4l-11.46-4.66c-.6-.24-1.25.21-1.24.85l.2,10.45c.02.88-1.11,1.26-1.63.55l-6.8-9.29c-.36-.49-1.08-.49-1.45,0l-6.92,9.19c-.53.7-1.65.31-1.62-.57l.34-10.45c.02-.65-.63-1.11-1.23-.87l-11.53,4.5c-.87.34-1.62-.7-1.02-1.42l6.72-8.13c.46-.55.12-1.39-.6-1.47l-11.97-1.29c-.96-.1-1.11-1.43-.2-1.75l10.89-3.8c.7-.24.82-1.17.22-1.59l-9.02-6.28c-.78-.54-.3-1.77.64-1.63l12.23,1.76c.68.1,1.21-.57.97-1.21l-3.63-9.67c-.32-.85.67-1.58,1.39-1.04l9.62,7.29c.49.37,1.2.15,1.4-.43l3.46-10.33c.28-.83,1.45-.82,1.71.01Z"/>
  <polygon class="cls-1" points="46.53 12.34 24.89 59.18 68.17 59.18 46.53 12.34"/>
  <polygon class="cls-2" points="22.41 21.02 .77 58.5 44.05 58.5 22.41 21.02"/>
</svg>